<svg xmlns="http://www.w3.org/2000/svg" viewBox="0 0 64 64" fill="none">
  <defs>
    <linearGradient id="g1" x1="0" y1="0" x2="64" y2="64" gradientUnits="userSpaceOnUse">
      <stop offset="0%" stop-color="#4F46E5"/>
      <stop offset="100%" stop-color="#7C3AED"/>
    </linearGradient>
    <linearGradient id="g2" x1="0" y1="0" x2="64" y2="64" gradientUnits="userSpaceOnUse">
      <stop offset="0%" stop-color="#818CF8"/>
      <stop offset="100%" stop-color="#A78BFA"/>
    </linearGradient>
  </defs>
  <!-- Background rounded rect -->
  <rect width="64" height="64" rx="16" fill="url(#g1)"/>
  <!-- Cloud shape -->
  <path d="M44 34c0 3.314-2.686 6-6 6H22a8 8 0 01-1.333-15.88A10 10 0 0130 17a10 10 0 019.8 8.04A6 6 0 0144 30v4z" fill="white" fill-opacity="0.15"/>
  <path d="M44 34c0 3.314-2.686 6-6 6H22a8 8 0 01-1.333-15.88A10 10 0 0130 17a10 10 0 019.8 8.04A6 6 0 0144 30v4z" stroke="white" stroke-width="2" stroke-linejoin="round"/>
  <!-- Upward arrow / trend line inside cloud -->
  <polyline points="22,34 28,28 33,32 40,24" stroke="url(#g2)" stroke-width="2.5" stroke-linecap="round" stroke-linejoin="round" fill="none"/>
  <polyline points="36,24 40,24 40,28" stroke="url(#g2)" stroke-width="2.5" stroke-linecap="round" stroke-linejoin="round" fill="none"/>
</svg>
